<svg xmlns="http://www.w3.org/2000/svg" width="128" height="128" viewBox="0 0 128 128">
  <rect width="128" height="128" rx="22" fill="#0d1117"/>
  <line x1="64" y1="10" x2="64" y2="118" stroke="#21262d" stroke-width="1.5"/>
  <rect x="10" y="26" width="42" height="52" rx="5" fill="none" stroke="#e6edf3" stroke-width="3"/>
  <line x1="17" y1="41" x2="46" y2="41" stroke="#e6edf3" stroke-width="2.5" stroke-linecap="round"/>
  <line x1="17" y1="52" x2="44" y2="52" stroke="#e6edf3" stroke-width="2.5" stroke-linecap="round"/>
  <line x1="17" y1="62" x2="38" y2="62" stroke="#e6edf3" stroke-width="2.5" stroke-linecap="round"/>
  <rect x="14" y="86" width="28" height="9" rx="2.5" fill="#21262d" stroke="#30363d" stroke-width="1"/>
  <line x1="17" y1="91" x2="23" y2="91" stroke="#58a6ff" stroke-width="2" stroke-linecap="round"/>
  <line x1="25" y1="91" x2="33" y2="91" stroke="#e6edf3" stroke-width="2" stroke-linecap="round" stroke-opacity="0.4"/>
  <line x1="70" y1="18" x2="70" y2="110" stroke="#58a6ff" stroke-width="3" stroke-linecap="round"/>
  <path d="M70 72 Q88 72 88 50" fill="none" stroke="#58a6ff" stroke-width="3" stroke-linecap="round"/>
  <circle cx="70" cy="18"  r="5" fill="#0d1117" stroke="#58a6ff" stroke-width="3"/>
  <circle cx="70" cy="110" r="5" fill="#0d1117" stroke="#58a6ff" stroke-width="3"/>
  <circle cx="88" cy="50"  r="10" fill="#3fb950"/>
  <path d="M83 50 l3 3 7-7" fill="none" stroke="#0d1117" stroke-width="2.2" stroke-linecap="round" stroke-linejoin="round"/>
</svg>
