<svg xmlns="http://www.w3.org/2000/svg" width="512" height="512" viewBox="0 0 512 512">
  <rect width="512" height="512" rx="90" fill="#0d1117"/>
  <line x1="256" y1="38" x2="256" y2="474" stroke="#21262d" stroke-width="4"/>

  <!-- IZQUIERDA — documento CV -->
  <rect x="52" y="116" width="164" height="200" rx="16" fill="none" stroke="#e6edf3" stroke-width="10"/>
  <line x1="76"  y1="181" x2="200" y2="181" stroke="#e6edf3" stroke-width="8" stroke-linecap="round"/>
  <line x1="76"  y1="215" x2="192" y2="215" stroke="#e6edf3" stroke-width="8" stroke-linecap="round"/>
  <line x1="76"  y1="249" x2="160" y2="249" stroke="#e6edf3" stroke-width="8" stroke-linecap="round"/>
  <line x1="76"  y1="280" x2="176" y2="280" stroke="#e6edf3" stroke-width="5" stroke-linecap="round" stroke-opacity="0.35"/>
  <!-- badge de código debajo -->
  <rect x="72" y="336" width="104" height="34" rx="8" fill="#21262d" stroke="#30363d" stroke-width="2.5"/>
  <line x1="84"  y1="353" x2="106" y2="353" stroke="#58a6ff" stroke-width="4.5" stroke-linecap="round"/>
  <line x1="114" y1="353" x2="148" y2="353" stroke="#e6edf3" stroke-width="4.5" stroke-linecap="round" stroke-opacity="0.4"/>
  <line x1="154" y1="353" x2="166" y2="353" stroke="#e6edf3" stroke-width="4.5" stroke-linecap="round" stroke-opacity="0.25"/>

  <!-- DERECHA — branch GitHub -->
  <line x1="376" y1="106" x2="376" y2="406" stroke="#58a6ff" stroke-width="11" stroke-linecap="round"/>
  <path d="M376 280 Q436 280 436 216" fill="none" stroke="#58a6ff" stroke-width="11" stroke-linecap="round"/>
  <circle cx="376" cy="106" r="20" fill="#0d1117" stroke="#58a6ff" stroke-width="10"/>
  <circle cx="376" cy="406" r="20" fill="#0d1117" stroke="#58a6ff" stroke-width="10"/>
  <circle cx="436" cy="216" r="38" fill="#3fb950"/>
  <path d="M420 216 l13 13 26-26" fill="none" stroke="#0d1117" stroke-width="8" stroke-linecap="round" stroke-linejoin="round"/>
</svg>
